<svg width="30" height="31" viewBox="0 0 30 31" fill="none" xmlns="http://www.w3.org/2000/svg">
<path d="M15.296 3.3004C22.2236 3.3004 27.4681 8.98029 27.4681 15.4786C27.4681 23.0151 21.3211 27.6934 15.2716 27.6934C13.2714 27.6934 11.0516 27.1559 9.27096 26.1055C8.64893 25.7268 8.12449 25.4459 7.45368 25.6657L4.98998 26.3986C4.36796 26.5941 3.80692 26.1055 3.98987 25.4459L4.80704 22.7098C4.9412 22.3311 4.91681 21.928 4.72166 21.6104C3.67276 19.6805 3.07513 17.5673 3.07513 15.5152C3.07513 9.09022 8.20986 3.3004 15.296 3.3004ZM20.8698 13.9639C20.0039 13.9639 19.3087 14.6602 19.3087 15.5274C19.3087 16.3825 20.0039 17.0909 20.8698 17.0909C21.7358 17.0909 22.431 16.3825 22.431 15.5274C22.431 14.6602 21.7358 13.9639 20.8698 13.9639ZM15.2472 13.9639C14.3935 13.9517 13.6861 14.6602 13.6861 15.5152C13.6861 16.3825 14.3813 17.0787 15.2472 17.0909C16.1132 17.0909 16.8084 16.3825 16.8084 15.5274C16.8084 14.6602 16.1132 13.9639 15.2472 13.9639ZM9.62465 13.9639C8.7587 13.9639 8.0635 14.6602 8.0635 15.5274C8.0635 16.3825 8.7709 17.0909 9.62465 17.0909C10.4906 17.0787 11.1858 16.3825 11.1858 15.5274C11.1858 14.6602 10.4906 13.9639 9.62465 13.9639Z" fill="#5D7285"/>
</svg>
