<svg width="30" height="30" viewBox="0 0 30 30" fill="none" xmlns="http://www.w3.org/2000/svg">
<path d="M20.9617 2.76981C22.7162 2.66015 24.4463 3.26935 25.75 4.46337C26.944 5.76705 27.5532 7.49716 27.4557 9.26382V20.6436C27.5654 22.4102 26.944 24.1404 25.7622 25.444C24.4585 26.6381 22.7162 27.2473 20.9617 27.1376H9.58181C7.81513 27.2473 6.085 26.6381 4.78131 25.444C3.58728 24.1404 2.97808 22.4102 3.08774 20.6436V9.26382C2.97808 7.49716 3.58728 5.76705 4.78131 4.46337C6.085 3.26935 7.81513 2.66015 9.58181 2.76981H20.9617ZM20.6449 8.33785C19.8895 7.58245 18.6711 7.58245 17.9157 8.33785L17.0993 9.16635C16.9775 9.28819 16.9775 9.49532 17.0993 9.61716C17.0993 9.61716 17.1232 9.64092 17.1658 9.68324L17.4655 9.98129C17.6389 10.1538 17.8552 10.3692 18.0725 10.5858L18.8093 11.3222C18.963 11.4766 19.065 11.5801 19.0731 11.5909C19.2072 11.7372 19.2925 11.9321 19.2925 12.1514C19.2925 12.59 18.9391 12.9555 18.4883 12.9555C18.2812 12.9555 18.0862 12.8703 17.9522 12.7362L15.9175 10.7137C15.82 10.6162 15.6494 10.6162 15.552 10.7137L9.7402 16.5254C9.33813 16.9275 9.10663 17.4636 9.09445 18.0362L9.02134 20.9238C9.02134 21.0822 9.07008 21.2284 9.17974 21.3381C9.28939 21.4477 9.4356 21.5086 9.59399 21.5086H12.4572C13.0421 21.5086 13.6025 21.2771 14.029 20.8629L22.2288 12.6388C22.972 11.8834 22.972 10.665 22.2288 9.92175L20.6449 8.33785Z" fill="#5D7285"/>
</svg>
