<svg width="25" height="25" viewBox="0 0 25 25" fill="none" xmlns="http://www.w3.org/2000/svg">
<path d="M17.5574 0.386787C21.6911 0.386787 24.4681 3.28725 24.4681 7.60312V17.5635C24.4681 21.8793 21.6911 24.7798 17.5562 24.7798H6.98589C2.85215 24.7798 0.0751343 21.8793 0.0751343 17.5635V7.60312C0.0751343 3.28725 2.85215 0.386787 6.98589 0.386787H17.5574ZM18.9024 13.2542C17.595 12.4385 16.5856 13.5839 16.3133 13.9502C16.0509 14.3039 15.8252 14.6941 15.5873 15.0843C15.0059 16.0471 14.34 17.1573 13.1871 17.803C11.5118 18.7306 10.2399 17.876 9.32501 17.2542C8.98161 17.0226 8.64801 16.8036 8.31564 16.6576C7.49637 16.3039 6.75928 16.7067 5.66528 18.0963C5.0913 18.8225 4.52223 19.5425 3.9458 20.2599C3.60116 20.6891 3.68334 21.3512 4.14816 21.6382C4.89016 22.095 5.79529 22.3405 6.81815 22.3405H17.097C17.6771 22.3405 18.2585 22.2612 18.8128 22.0799C20.0614 21.6721 21.0523 20.7382 21.5699 19.5047C22.0065 18.4676 22.2187 17.2089 21.8103 16.1617C21.6742 15.8143 21.4706 15.4908 21.1848 15.2064C20.4354 14.4625 19.7351 13.7677 18.9024 13.2542ZM8.00147 5.26539C6.32 5.26539 4.95373 6.63351 4.95373 8.31451C4.95373 9.99552 6.32 11.3636 8.00147 11.3636C9.68171 11.3636 11.0492 9.99552 11.0492 8.31451C11.0492 6.63351 9.68171 5.26539 8.00147 5.26539Z" fill="#150A09"/>
</svg>
