<svg width="54" height="48" viewBox="0 0 54 48" fill="none" xmlns="http://www.w3.org/2000/svg">
<g id="vuesax/linear/notification">
<g id="notification">
<path id="Vector" d="M27.045 5.82001C19.5975 5.82001 13.545 11.2 13.545 17.82V23.6C13.545 24.82 12.96 26.68 12.2625 27.72L9.67501 31.54C8.07751 33.9 9.18001 36.52 12.105 37.4C21.8025 40.28 32.265 40.28 41.9625 37.4C44.685 36.6 45.8775 33.74 44.3925 31.54L41.805 27.72C41.13 26.68 40.545 24.82 40.545 23.6V17.82C40.545 11.22 34.47 5.82001 27.045 5.82001Z" stroke="#0A3B83" stroke-width="1.5" stroke-miterlimit="10" stroke-linecap="round"/>
<path id="Vector_2" d="M31.2075 6.4C30.51 6.22 29.79 6.08 29.0475 6C26.8875 5.76 24.8175 5.9 22.8825 6.4C23.535 4.92 25.155 3.88 27.045 3.88C28.935 3.88 30.555 4.92 31.2075 6.4Z" stroke="#0A3B83" stroke-width="1.5" stroke-miterlimit="10" stroke-linecap="round" stroke-linejoin="round"/>
<path id="Vector_3" d="M33.795 38.12C33.795 41.42 30.7575 44.12 27.045 44.12C25.2 44.12 23.49 43.44 22.275 42.36C21.06 41.28 20.295 39.76 20.295 38.12" stroke="#0A3B83" stroke-width="1.5" stroke-miterlimit="10"/>
</g>
</g>
</svg>
