<svg width="30" height="31" viewBox="0 0 30 31" fill="none" xmlns="http://www.w3.org/2000/svg">
<path d="M16.1463 3.20171C17.0686 3.20171 17.9037 3.71396 18.3649 4.47014C18.5893 4.83604 18.7388 5.28731 18.7014 5.76297C18.6765 6.12887 18.7887 6.49476 18.9881 6.83626C19.6238 7.87297 21.0323 8.26325 22.1291 7.67782C23.3631 6.97042 24.9211 7.3973 25.6316 8.60475L26.4667 10.0439C27.1896 11.2514 26.7908 12.8004 25.5443 13.4956C24.4849 14.1176 24.1109 15.4958 24.7466 16.5447C24.9461 16.874 25.1704 17.1545 25.5194 17.3253C25.9557 17.557 26.2922 17.9229 26.529 18.2888C26.9902 19.045 26.9528 19.9719 26.5041 20.7891L25.6316 22.2526C25.1704 23.0332 24.3104 23.5211 23.4254 23.5211C22.9892 23.5211 22.503 23.3991 22.1042 23.1552C21.7801 22.9478 21.4062 22.8747 21.0073 22.8747C19.7734 22.8747 18.7388 23.887 18.7014 25.0944C18.7014 26.497 17.5547 27.5947 16.1213 27.5947H14.4262C12.9803 27.5947 11.8336 26.497 11.8336 25.0944C11.8087 23.887 10.7741 22.8747 9.54017 22.8747C9.12885 22.8747 8.75492 22.9478 8.44331 23.1552C8.04446 23.3991 7.54588 23.5211 7.1221 23.5211C6.22467 23.5211 5.36463 23.0332 4.90345 22.2526L4.04342 20.7891C3.58224 19.9963 3.55731 19.045 4.01849 18.2888C4.21792 17.9229 4.59185 17.557 5.01563 17.3253C5.36463 17.1545 5.58899 16.874 5.80088 16.5447C6.4241 15.4958 6.05017 14.1176 4.9907 13.4956C3.75674 12.8004 3.35788 11.2514 4.06834 10.0439L4.90345 8.60475C5.62638 7.3973 7.17196 6.97042 8.41839 7.67782C9.50278 8.26325 10.9112 7.87297 11.5469 6.83626C11.7464 6.49476 11.8585 6.12887 11.8336 5.76297C11.8087 5.28731 11.9458 4.83604 12.1826 4.47014C12.6438 3.71396 13.4789 3.2261 14.3888 3.20171H16.1463ZM15.2862 11.9588C13.3293 11.9588 11.7464 13.4956 11.7464 15.4104C11.7464 17.3253 13.3293 18.8498 15.2862 18.8498C17.2431 18.8498 18.7887 17.3253 18.7887 15.4104C18.7887 13.4956 17.2431 11.9588 15.2862 11.9588Z" fill="#5D7285"/>
</svg>
